<svg xmlns="http://www.w3.org/2000/svg" xmlns:xlink="http://www.w3.org/1999/xlink" viewBox="0 0 1981.25 1903.18"><defs><style>.cls-1{fill:url(#linear-gradient);}.cls-2{fill:#1e003d;fill-opacity:0.2;}.cls-3{fill:url(#linear-gradient-2);}.cls-4{fill:#dcc6e0;}.cls-4,.cls-9{fill-opacity:0.25;}.cls-5{fill:url(#linear-gradient-3);}.cls-6{fill:url(#linear-gradient-4);}.cls-7{fill:url(#linear-gradient-5);}.cls-8{fill:url(#linear-gradient-6);}.cls-9{fill:#ffbcd8;}.cls-10{fill:url(#linear-gradient-7);}</style><linearGradient id="linear-gradient" x1="3055.77" y1="2882.08" x2="285.03" y2="111.31" gradientTransform="matrix(1, 0, 0, -1, 0, 1905.18)" gradientUnits="userSpaceOnUse"><stop offset="0" stop-color="#4a1877"/><stop offset="1" stop-color="#5e17a9"/></linearGradient><linearGradient id="linear-gradient-2" x1="-3079.74" y1="-903.05" x2="1796.76" y2="403.62" gradientTransform="matrix(1, 0, 0, -1, 0, 1905.18)" gradientUnits="userSpaceOnUse"><stop offset="0" stop-color="#0049e7"/><stop offset="1" stop-color="#9027e2"/></linearGradient><linearGradient id="linear-gradient-3" x1="-3429.41" y1="401.92" x2="1447.08" y2="1708.58" xlink:href="#linear-gradient-2"/><linearGradient id="linear-gradient-4" x1="-3360.01" y1="142.93" x2="1516.48" y2="1449.59" xlink:href="#linear-gradient-2"/><linearGradient id="linear-gradient-5" x1="-3152.03" y1="-633.29" x2="1724.47" y2="673.37" xlink:href="#linear-gradient-2"/><linearGradient id="linear-gradient-6" x1="-112.72" y1="179.43" x2="1875.65" y2="1327.42" gradientTransform="matrix(0.71, 0.71, 0.71, -0.71, -356.65, 437.81)" gradientUnits="userSpaceOnUse"><stop offset="0" stop-color="#9027e2"/><stop offset="1" stop-color="#fb5e53"/></linearGradient><linearGradient id="linear-gradient-7" x1="-190.5" y1="314.14" x2="1797.85" y2="1462.13" gradientTransform="matrix(1, 0, 0, -1, 0, 1905.18)" xlink:href="#linear-gradient-6"/></defs><g id="LOGO"><path class="cls-1" d="M1050.79,1761l369.65,130.74c61.14,21.62,123.55,12.5,176-25.71s80.2-94.84,78.3-159.67l-11.19-385.16c-1.32-45.66,11.49-85.33,39.3-121.59l238.55-311.13c39.45-51.49,50.09-113.65,29.92-175.32s-65.41-105.55-127.65-123.79L1473.87,480.94C1430,468.1,1396.25,443.63,1370.35,406L1148.17,83C1111.41,29.54,1055.56.22,990.7.33S870.08,29.92,833.49,83.49L616.15,401.67c-25.76,37.72-59.46,62.29-103.24,75.27L137,588.45C74.82,606.91,29.71,650.94,9.77,712.68S.65,836.53,40.27,887.86l235.44,305c27.93,36.18,40.88,75.8,39.7,121.48L305.3,1706.29c-1.68,64.86,26.28,121.37,78.83,159.42s115,47,176,25.13L923,1761.18c43-15.38,84.73-15.43,127.79-.22Z"/><path class="cls-2" d="M1082.12,1772l338.32,119.67c61.14,21.62,123.55,12.5,176-25.71s80.2-94.84,78.3-159.67l-11.19-385.16c-1.32-45.66,11.49-85.33,39.3-121.59-101.7,58.85-183.37,271.53-217.84,381.85-14.6,46.76-34,93.1-61.85,121.15-95.2,95.75-218.36,98.28-341,69.46Z"/><path class="cls-2" d="M1473.37,480.8c-43.61-12.9-77.23-37.31-103-74.81L1148.17,83C1111.41,29.54,1055.56.22,990.7.33S870.08,29.92,833.49,83.49L727,239.35c34.11-41.3,75.47-64.91,135.29-74.8,38.18-6.31,63.73-4.3,93.32,30.06C1170,443.55,1313.24,446.47,1473.37,480.8Z"/><path class="cls-3" d="M1119.37,1785.23l301.07,106.47c126.86,44.85,258.17-50.87,254.26-185.38l-11.19-385.16c-1.29-44.2,10.7-82.8,36.68-118.09-210.31,275.17-41.47,726.68-580.82,582.16Z"/><path class="cls-4" d="M1257.36,1834l163.08,57.67c126.86,44.85,258.17-50.87,254.26-185.38l-9.67-333.2c3.66,126.31-32.57,326.59-106.35,416.22C1495.36,1866.24,1368.48,1863.78,1257.36,1834Z"/><path class="cls-5" d="M1534.6,498.73c-68.75-20.14-119.72-28-164.25-92.74L1148.17,83c-76.27-110.87-238.78-110.6-314.68.5l-85,124.37c85-124.37,178.71-151.68,259.24-58.17,209,242.69,253.74,275.89,526.81,349Z"/><path class="cls-4" d="M1361.62,393.32,1148.17,83c-76.27-110.87-238.78-110.6-314.68.5,86.29-82.25,196.75-43.15,269.41,53.42C1193.41,257.23,1298.41,354.69,1361.62,393.32Z"/><path class="cls-2" d="M556.17,478.07c-5.93,3-37.26,62.46-45.11,63.32L232.7,625.26C103.86,664.05-41.95,781.37,40.27,887.86l235.44,305c27.93,36.18,40.88,75.8,39.7,121.48L305.3,1706.29c-3.47,134.52,128.15,229.82,254.86,184.55L923,1761.18l376.38-139.83c274.37-97.1,124.84-375.49-48.66-311l-69.82,25.93c-71.33,26.48-151.38-10.17-177.85-81.5s10.08-151.16,81.22-177.77L1389,963.77c71.34-26.48,108-106.52,81.51-177.85s-106.52-108-177.86-81.5L981,820.22c-61.25,22.76-129.94-8.73-152.7-70-22.62-60.89,10.72-123.68,71.3-146.8l72.72-27c61.22-22.76,90.4-97,67.67-158.21-22.35-60.12-92.72-101-158-79.1L673.38,416.9,556.17,478.07Z"/><path class="cls-6" d="M782.18,652.81l72.69-27c61.25-22.73,85.22-100.76,62.49-162-22.35-60.1-92.72-101-158-79.08L512.91,476.94l-10.66,3.31c65.24-21.91,135.61,19,158,79.07,22.73,61.25-8.77,129.94-70,152.7l-197.5,73.37c-60.59,23.12-91.64,91.42-69,152.34,22.73,61.23,91.45,92.72,152.67,70l382-141.9c-61.23,22.73-129.94-8.73-152.7-70C683.05,734.92,721.57,675.9,782.18,652.81Z"/><path class="cls-2" d="M613,439.47l-100.1,37.47-10.66,3.31c65.24-21.91,135.61,19,158,79.07,22.73,61.25-8.77,129.94-70,152.7l-197.5,73.37c-60.59,23.12-91.64,91.42-69,152.34,22.73,61.23,91.45,92.72,152.67,70l382-141.9a118.87,118.87,0,0,1-109.5-14.21L458.49,959.47c-34.6,12.87-73.7-5.07-86.57-39.65-12.59-33.94,4.41-72.29,37.8-85.85l196.65-60.86c92.74-28.71,134.32-144.79,102-231.7-17.06-45.9-52.52-82.13-95.39-101.94Z"/><path class="cls-7" d="M961.69,1122.56,575.78,1265.92C504.59,1292.5,468,1372.43,494.5,1443.69s106.52,108,177.86,81.5l202-75.06c131.07-48.68,206.67,221.75,58,307.55l244.37-90.79c274.37-97.09,124.84-375.49-48.66-311l-69.82,25.92c-71.34,26.51-151.35-10.16-177.85-81.5s10.08-151.15,81.25-177.74Z"/><path class="cls-2" d="M961.69,1122.56,575.78,1265.92C504.59,1292.5,468,1372.43,494.5,1443.69s106.52,108,177.86,81.5l202-75.06c131.07-48.68,206.67,221.75,58,307.55l161.9-60.15a198.14,198.14,0,0,0,26.4-62.49c16.14-69.54-7.88-142.09-59.24-191-55.66-53-132.89-68.94-205-42.13l-202,75c-44.67,16.59-95.14-6.53-111.73-51.19s6.36-95.06,51-111.65l285.45-106.05a138.25,138.25,0,0,1,82.55-85.52Z"/><path class="cls-2" d="M1646.62,596.85A129.68,129.68,0,1,1,1517,726.51,129.69,129.69,0,0,1,1646.62,596.85Z"/><circle class="cls-8" cx="1592.95" cy="740.98" r="129.66" transform="translate(-57.39 1343.41) rotate(-45)"/><path class="cls-2" d="M1719.47,712.46a129.69,129.69,0,1,1-253,0,129.7,129.7,0,0,0,253,0Z"/><path class="cls-9" d="M1593,611.32A129.67,129.67,0,0,1,1722.62,741a132.18,132.18,0,0,1-2.37,24.85,129.7,129.7,0,0,0-254.59,0A129.68,129.68,0,0,1,1593,611.32Z"/><path class="cls-10" d="M392.72,785.39,591.16,724c62.38-19.32,91.78-103.41,69.05-164.66-22.35-60.09-92.72-101-158-79.07L137,588.45C8,626.72-41.95,781.34,40.27,887.86l235.44,305c45.4,58.8,40.14,104.34,38.43,170.22l-8.84,343.17c-3.5,134.52,128.17,229.82,254.86,184.55L923,1761.18c274.07-97.93,124.87-375.49-48.65-311l-202,75.06C601,1551.69,521,1515,494.5,1443.69s10.09-151.19,81.28-177.77l760.88-282.7c71.33-26.47,108-106.52,81.5-177.85s-106.52-108-177.86-81.5L476.4,1007.69c-61.22,22.76-129.94-8.73-152.67-70-22.65-60.92,8.4-129.22,69-152.34Z"/><path class="cls-2" d="M392.72,785.39,591.16,724c57-17.66,86.46-89.41,73.76-148.37-8.41,41.52-34.58,79.21-73.76,91.33L392.72,728.36c-56.45,21.52-87.23,82.27-72.9,139.72a119,119,0,0,1,72.9-82.69ZM2.33,742.85c-7.39,48.83,4,101,37.94,145l235.44,305c27.6,35.76,36.48,66.62,38.82,100.1,1.79-59,3.52-102.3-38.82-157.13l-235.44-305a190.55,190.55,0,0,1-37.94-88Zm303.82,930.57-.85,32.87c-3.5,134.52,128.17,229.82,254.86,184.55L923,1761.18c126.06-45,162.51-128.07,148.32-198.33-11.13,54.2-55.35,108.06-148.32,141.29L560.16,1833.81c-118.94,42.51-242.3-38.93-254-160.39Zm182.73-306.14a138.53,138.53,0,0,1,86.9-101.36l760.88-282.7c64.94-24.11,101.14-92.57,87.12-158.48-9.51,45-41.08,84.37-87.12,101.45L575.78,1208.88c-64.8,24.19-100.89,92.58-86.9,158.4Z"/><path class="cls-9" d="M665.63,628.84c4.11-23.45,2.59-47.89-5.42-69.52-22.35-60.09-92.72-101-158-79.07L137,588.45C42.17,616.61-10,707.67,1.8,796.25,11.12,725.38,59.94,661,137,638.12l365.22-108.2c65.24-21.9,135.61,19,158,79.08A120.37,120.37,0,0,1,665.63,628.84ZM1072,1616.17c18.54-104.35-84.37-208.11-197.69-166l-202,75.06C601,1551.69,521,1515,494.5,1443.69a137.83,137.83,0,0,1-6.36-23,137.33,137.33,0,0,0,6.36,72.71c26.51,71.34,106.52,108,177.86,81.51l202-75.06C969.43,1464.49,1057.21,1531.88,1072,1616.17Zm352.48-738.09a137.33,137.33,0,0,0-6.36-72.71c-26.48-71.31-106.52-108-177.86-81.5L476.4,1007.69c-61.22,22.76-129.94-8.73-152.67-70A119.49,119.49,0,0,1,319,921.45a117.79,117.79,0,0,0,4.77,66c22.73,61.22,91.45,92.69,152.67,70l763.9-283.82c71.34-26.51,151.38,10.16,177.86,81.5A136.52,136.52,0,0,1,1424.52,878.08Z"/></g></svg>