<svg id="Capa_1" data-name="Capa 1" xmlns="http://www.w3.org/2000/svg" viewBox="0 0 975 697.7">
    <defs>
        <style>
            .cls-1{fill:#56597a;}.cls-2{fill:#b4c7e7;}.cls-3{fill:#f7d06f;}.cls-4{fill:#fff;}.cls-5{fill:#57455d;}.cls-6{fill:#74a2d6;}.cls-7{fill:#ef86b0;}.cls-8{fill:#f7d3bc;}
        </style>
    </defs>
    <path class="cls-1"
          d="M946.1,200.63c-27.05-50.82-74.08-97.6-139-132C738.85,32.48,654.78,10.91,567.27,3.36,478.48-4.44,386.86,1.53,301.56,19.2,215.3,37,128.55,66.59,68.36,110.83,36.44,134.22,13.65,162,5,192.7c-9.38,33.39-4.35,67.38,5.12,100.65C28.51,356.22,65.44,417.87,124,470.14a482.27,482.27,0,0,0,46.42,36.42,11.12,11.12,0,0,0,8.41,1.84,24.18,24.18,0,0,0,2.93.48c115.74,7.92,231.62,17.54,347.86,22C637.37,535.08,752,533.37,853,506.08c44.83-12.07,65.7-35.94,83.1-63.73a247.87,247.87,0,0,0,33.38-80.79C981,307.85,973.53,252,946.1,200.63Z"/>
    <path class="cls-2"
          d="M896.77,468.55c-7.8-15.47-28.91-25.46-47.89-31.8-60.3-20.1-128.66-30-194.21-33.38a857.52,857.52,0,0,0-203.11,13.89,6.66,6.66,0,0,0-4.15,2.07c-37.4,2.32-74.68,6.1-111.61,11.58-31.06,4.6-62.13,10.84-92.35,17.91-27.79,6.57-56.9,13.28-82.73,23.51-18.4,7.44-35,19.38-35,36.19,0,16,15.12,28.52,31.81,36.92,22,11.45,49.47,16.57,75.3,21A840.8,840.8,0,0,0,323.52,576a1897.53,1897.53,0,0,0,392.09-18.76c54.71-8.41,116-20.59,160.59-47.16C893.48,500.48,905.18,485,896.77,468.55Z"/>
    <path class="cls-3"
          d="M278.05,254a11.38,11.38,0,0,0-7.8,2.92c-.12-.11-.49-.36-.6-.48-1.83-1.59-1.83-4.51-1.59-6.82.36-4.15-4-5.61-7.07-4-2.8.36-5.36,2.55-4.63,6,.85,4.51-1,8.54-4.38,11.45a4.83,4.83,0,0,0,6.82,6.83c3.17-3.65,6.34,2.07,6.94,4.88,1.47,5,10.11,4.38,9.51-1.32-.12-1.46-.61-4.87-.12-7.07a12.15,12.15,0,0,0,6.94-5.12C284.26,258.25,281.58,253.87,278.05,254Z"/>
    <path class="cls-3"
          d="M758.85,339.53c-4.51,0-4.87-5.61-4.87-8.9a4.06,4.06,0,0,0-2.93-4.14c-2.31-3.05-7.8-3.54-8.54,1.09a10.82,10.82,0,0,1-5.36,8.05,11.45,11.45,0,0,0-6.09,1.82c-3.9,2.32-2.56,9.51,2.44,9a17.08,17.08,0,0,0,5-1.09c2.31,1,3,5.48,3.17,7.54.12,5.49,7.8,6.46,9.5,1.32,1.09-3.41,4.14-5,7.55-4.87C765.18,349.15,765.18,339.68,758.85,339.53Z"/>
    <path class="cls-3"
          d="M706.09,126.91c-3.41.61-5.61-1.32-6-4a22.28,22.28,0,0,0,.49-6.46c-.36-6.09-10-6.33-9.63,0v1.1h0a14.6,14.6,0,0,0-.48,3.89,13.48,13.48,0,0,1-8.89,9.86h0a8.93,8.93,0,0,0-1.1.48c-5,2.32-1.46,10.85,3.65,8.89.49-.11.86-.36,1.32-.48,3.17-1.46,5.6.61,7.43,3.53a18,18,0,0,0,4.51,10.11c3.16,3.54,9.5-.11,8-4.6a58.65,58.65,0,0,0-3-7.55c.48-2.81,3-5,6.46-5.61C714.83,135.19,712.3,125.94,706.09,126.91Z"/>
    <path class="cls-3"
          d="M553.05,42.11c-5.85,2-6.09-5.36-5.48-8.66.61-3.53-2.44-6-5.12-6.09-3.17-2.43-9.13.12-7.55,5a14.33,14.33,0,0,1-6.1,17.08c-.48.37-1.1.61-1.58,1-5.36,3.41-.61,11.08,4.87,8.4,4-2.55,7.32-.12,9.63,3.42.61,2.92,2.31,5.6,4.51,8.28,4,4.39,9.62-1.09,7.55-5.84a39.76,39.76,0,0,0-3-5.49,6.87,6.87,0,0,1,5-7.56C561.46,49.41,559,40,553.05,42.11Z"/>
    <path class="cls-3"
          d="M446.44,117.89a11.63,11.63,0,0,0-3.66.49c-5.11,0-8.41-4.39-7.79-10a3.8,3.8,0,0,0-3-4.44,3.48,3.48,0,0,0-.64-.07c-3.05-3.9-10.36-1.31-8.54,4a16.13,16.13,0,0,1-3,16.81,11.27,11.27,0,0,0-2.07,2.07,4.83,4.83,0,0,0,6.82,6.83l1-1c3.42-2.32,6.57,3.17,8,6.33a2.87,2.87,0,0,0,.37.86c3.05,5.6,10.85.6,8.41-4.88-.12-.12-.12-.49-.37-.61-1.09-2.92.13-5.48,2.93-6.33a9.71,9.71,0,0,0,3.16-.49C453,126.18,451.92,117.77,446.44,117.89Z"/>
    <path class="cls-3"
          d="M348.36,343.18c-5.86,1.46-10.85-1-13-5.85A20.27,20.27,0,0,0,334,331a8.26,8.26,0,0,0-.6-1.82,24.94,24.94,0,0,0-1.32-2.44c-3.05-5.36-11.46-.49-8.41,4.87.37.49.49,1,.86,1.47a25.21,25.21,0,0,0,1.09,6.09,14.12,14.12,0,0,1-2.92,8,18.32,18.32,0,0,0-6.46,5.85c-2.92,4.15,2.56,8.65,6.57,6.57a21.77,21.77,0,0,0,6.09-4.87c3.54-.61,7.07,2.31,7.8,6.46,1,6.09,10.36,3.53,9.38-2.56a6,6,0,0,1,4.6-6.57C357.13,350.85,354.57,341.6,348.36,343.18Z"/>
    <path class="cls-4" d="M289.87,171.74c-6.33,0-6.33,9.63,0,9.63C296,181.49,296,171.74,289.87,171.74Z"/>
    <path class="cls-4" d="M329.71,229.62c-6.33,0-6.33,9.63,0,9.63C335.8,239.37,335.8,229.62,329.71,229.62Z"/>
    <path class="cls-4" d="M289.87,354c-6.33,0-6.33,9.63,0,9.63C296,363.65,296,354,289.87,354Z"/>
    <path class="cls-4" d="M359.2,299.56c-6.34,0-6.34,9.63,0,9.63C365.3,309.19,365.3,299.56,359.2,299.56Z"/>
    <path class="cls-4" d="M562.92,366.94c-6.33,0-6.33,9.62,0,9.62S569.25,366.94,562.92,366.94Z"/>
    <path class="cls-4"
          d="M741.42,261.79a5,5,0,0,0-4.87,4.87v1.46a4.88,4.88,0,1,0,9.75,0v-1.46A4.88,4.88,0,0,0,741.42,261.79Z"/>
    <path class="cls-4" d="M685.13,264.34c-6.34,0-6.34,9.63,0,9.63S691.34,264.34,685.13,264.34Z"/>
    <path class="cls-4" d="M651.76,205.38c-6.34,0-6.34,9.62,0,9.62S658,205.38,651.76,205.38Z"/>
    <path class="cls-4" d="M612.39,103.51c-6.34,0-6.34,9.63,0,9.63S618.72,103.51,612.39,103.51Z"/>
    <path class="cls-4" d="M503.09,93.89c-6.33,0-6.33,9.62,0,9.62C509.18,103.51,509.31,93.89,503.09,93.89Z"/>
    <path class="cls-4"
          d="M456.19,43.57a5,5,0,0,0-4.88,4.87v1.49a4.88,4.88,0,0,0,9.75,0V48.44A5,5,0,0,0,456.19,43.57Z"/>
    <path class="cls-4" d="M382.71,98.76c-6.33,0-6.33,9.63,0,9.63S389.05,98.76,382.71,98.76Z"/>
    <path class="cls-4" d="M484.58,371.81c-6.34,0-6.34,9.63,0,9.63S490.79,371.81,484.58,371.81Z"/>
    <path class="cls-5"
          d="M729.48,441.26a4.06,4.06,0,0,0-4.14-1.06h-.12c-8.89-1-21.08,1-27.29,8.29-5.61,6.45-1,14.86,6.09,17.54,8.29,3.05,19.61.13,26.81-4.39C739.35,456.13,735.33,446.77,729.48,441.26Zm-4.75,12.43c-1,1-4,1.59-5.12,2-3.41,1.1-9.38,3-12.55.86-2.31-1.59-1.59-2.08.61-3.54a17.81,17.81,0,0,1,5.12-2.32,29,29,0,0,1,11.57-1c1.1,1.08,1.71,2.42.37,4Z"/>
    <path class="cls-5"
          d="M663.44,434.68c-.85-2.8-3.41-3.65-6-3.41-4.63.61-9.38,1.32-14,2-2.56.36-4,3.66-3.41,6,.85,2.8,3.41,3.66,6,3.41,4.6-.61,9.39-1.32,14-2C662.59,440.29,664.05,437.12,663.44,434.68Z"/>
    <path class="cls-5"
          d="M545,542l-15.84,3.66c-6.09,1.46-3.54,10.84,2.56,9.38,5.36-1.32,10.6-2.44,15.84-3.66C553.54,549.93,551,540.69,545,542Z"/>
    <path class="cls-5"
          d="M396.12,513.27a5,5,0,0,0-6-3.41L381,511.33c-2.56.48-4,3.65-3.42,6a5,5,0,0,0,6,3.42l9.14-1.47C395.39,518.76,396.83,515.47,396.12,513.27Z"/>
    <path class="cls-5"
          d="M353.23,460c-4.87-5.12-12.55-6-19.62-4.87a7.34,7.34,0,0,0-2.8.12c-1.1.48-2.44,1-3.66,1.46-.85.36-1.58.61-2.31,1-.12.13-.49.13-.61.37-6.46,3-13.4,7.79-10,14.86,4.39,9.14,20.1,6.83,27.78,4.39C348.87,475.14,361.15,468.55,353.23,460Zm-9.86,6.45a28.46,28.46,0,0,1-7.31,2.44,27.45,27.45,0,0,1-6.45.61c-1.47,0-3.17-.48-4.64-.48.49-.37,1-.61,1.47-1a55.76,55.76,0,0,1,6-2.93,18.41,18.41,0,0,1,10.85,0c1.93.62,2.54-.11.11,1.34Z"/>
    <path class="cls-5"
          d="M406.35,443.7h-7.43a4.88,4.88,0,0,0,0,9.75h7.43a5,5,0,0,0,4.88-4.88A5.16,5.16,0,0,0,406.35,443.7Z"/>
    <path class="cls-5"
          d="M659.79,504.62c-6.95.61-13.89,1.32-20.84,2-6.09.61-6.09,10.36,0,9.62,6.95-.6,13.89-1.31,20.84-2C666,513.64,666,504,659.79,504.62Z"/>
    <path class="cls-5"
          d="M480.19,534.81a49.48,49.48,0,0,0-14.62.86c-2.56.49-4,3.53-3.42,6a5,5,0,0,0,6,3.42,44.7,44.7,0,0,1,12.06-.37c2.55.12,4.87-2.43,4.87-4.87C485.06,536.91,482.74,535.2,480.19,534.81Z"/>
    <path class="cls-5"
          d="M317.4,498.41c-3.41.37-6.57.61-10,.85a5,5,0,0,0-4.88,4.88,5.06,5.06,0,0,0,4.88,4.87c3.41-.36,6.57-.61,10-.86a5,5,0,0,0,4.88-4.87C322.28,500.85,320,498.17,317.4,498.41Z"/>
    <path class="cls-6"
          d="M197.75,280.31c-1.82-22.54-19.49-40.33-40.93-42.52-18.77-8.9-42.77-4.15-56.78,11.33-16.33,18-17.55,46.3-5.61,66.89C122.85,364.38,201.78,333.92,197.75,280.31Z"/>
    <path class="cls-5"
          d="M134,299.19a53.93,53.93,0,0,1-37.51,5.49c-6.1-1.31-8.66,8-2.57,9.38a66.35,66.35,0,0,0,45.21-6.46C144.39,304.55,139.52,296.27,134,299.19Z"/>
    <path class="cls-5"
          d="M178.26,258.87a162.91,162.91,0,0,1-45.45,11.45c-6.09.61-6.09,10.35,0,9.62a181,181,0,0,0,48-11.82C186.43,265.93,183.86,256.67,178.26,258.87Z"/>
    <path class="cls-5"
          d="M164.5,311.62h-5.61a4.88,4.88,0,0,0,0,9.75h5.61a5,5,0,0,0,4.86-4.87,4.74,4.74,0,0,0-4.59-4.88Z"/>
    <path class="cls-7"
          d="M912.12,271.17a31.11,31.11,0,0,0-2.8-20.59,31.51,31.51,0,0,0-21.57-16.33c-.12-.12-.48-.12-.6-.36-16.82-5.85-36.32-.61-46.91,13.88-10.36,14.14-9.86,35.22,1.09,48.87s31.44,18.88,47.4,11.57C903.11,302.12,912.73,286.64,912.12,271.17Z"/>
    <path class="cls-3"
          d="M917.73,283.72c-5-3.65-10.36,4.39-5.48,8,1.82,1.83,1.58,3.17-.37,4.15-1.32,2-2.93,2.07-5,.48-2.93-.85-5.85-2-8.66-2.92-4.87-1.58-9.62-3.42-14.37-5.36-11-4.15-21.82-8.9-32.41-14s-21.32-10.48-31.32-16.57a23.36,23.36,0,0,1-4.87-3.41c-2.44-2.44-3.54-3.17-.36-5.12,4.59-2.81,13.52-.13,18,1.58,5.85,2.31,8.9-6.94,3.05-9.14-9.14-3.53-37.4-6-32.78,11.58,2,7.3,9.14,11.32,15.36,14.86,9.14,5.36,18.76,10.11,28.39,14.87,10.11,4.87,20.46,9.38,30.83,13.52,9.5,3.65,19.49,8.41,29.48,10.35C921.14,309.19,929.06,292.25,917.73,283.72Z"/>
    <path class="cls-5"
          d="M895.18,253.26l-7.79-5.36c-5.12-3.54-10.6,4.51-5.48,8l7.79,5.36C894.86,264.71,900.3,256.8,895.18,253.26Z"/>
    <path class="cls-5"
          d="M872.77,262.89A32.61,32.61,0,0,0,857.29,258c-6.33-.37-6.94,9.38-.61,9.63a20.07,20.07,0,0,1,10.61,3.16C872.77,274.22,878,266.18,872.77,262.89Z"/>
    <path class="cls-5"
          d="M871.91,302.73c.61-2.31-.36-5.48-3-6.09-2-.49-4-1-6-1.32-2.44-.48-5.36.36-6.09,3.05-.61,2.31.36,5.48,3.05,6.09,2,.49,4,1,6,1.32C868.38,306.26,871.31,305.28,871.91,302.73Z"/>
    <path class="cls-3"
          d="M921.26,376.08c-3.17.48-6.33,1-9.5,1.58-.49-2.44-.85-4.6-1.31-7.07-1.1-6.09-10.37-3.53-9.39,2.56.37,2.07.61,4,1.1,6.1-2.32.36-4.39.61-6.57,1.09-6.09,1-3.53,10.36,2.56,9.38,2-.36,3.66-.61,5.61-1l1.46,8.54c1.09,6.09,10.35,3.54,9.38-2.56-.49-2.55-.86-5-1.32-7.55,3.54-.49,7-1.1,10.52-1.59C930,384.36,927.35,375.11,921.26,376.08Z"/>
    <path class="cls-3"
          d="M171,148.6H160.84c-1.32-4.51-2.44-9-3.66-13.41-1.58-6-11-3.41-9.38,2.56,1,3.53,2,7.31,3,10.85H147c-6.34,0-6.34,9.62,0,9.62h6.57c.6,2.07,1.09,4.14,1.82,6.34,1.59,6,11,3.41,9.39-2.56-.37-1.31-.62-2.44-1-3.66h7.55C177.16,158.22,177.16,148.6,171,148.6Z"/>
    <path class="cls-3"
          d="M186.67,363c-2.56,1-5.36,1.83-7.92,2.8-.61-1.58-1.46-3.17-2.07-4.87-1.1-2.43-4.51-2.93-6.57-1.83-2.44,1.47-2.81,4.15-1.84,6.57.5,1,1,2.07,1.47,3-1,.37-2,.61-2.92,1-5.85,2-3.41,11.33,2.55,9.38,1.47-.49,2.81-1,4.15-1.46.61,1.58,1.46,3.17,2.07,4.87,1.09,2.44,4.5,2.93,6.57,1.83,2.43-1.47,2.8-4.15,1.82-6.57-.48-1-1-2.08-1.46-3,2.32-.85,4.39-1.46,6.57-2.31C195.2,370.35,192.64,361,186.67,363Z"/>
    <path class="cls-5"
          d="M802.21,465.27a91.74,91.74,0,0,1-17.3,2.44c-6.33.11-6.33,9.85,0,9.62a85.41,85.41,0,0,0,19.86-2.8C810.76,473.19,808.19,463.8,802.21,465.27Z"/>
    <path class="cls-5"
          d="M746.91,515.1a126.16,126.16,0,0,1-24.37,3.41c-6.34.12-6.34,9.86,0,9.63a144.89,144.89,0,0,0,26.94-3.66C755.68,523,753.12,513.64,746.91,515.1Z"/>
    <path class="cls-5"
          d="M361.27,549.22a26.66,26.66,0,0,1-13.06,2.31c-6.33-.49-6.09,9.14,0,9.62a35.47,35.47,0,0,0,18-3.52C372,554.82,367,546.64,361.27,549.22Z"/>
    <path class="cls-5"
          d="M240.52,524.48H224.93c-6.34,0-6.34,9.63,0,9.63h15.59C246.62,534.23,246.62,524.48,240.52,524.48Z"/>
    <path class="cls-5"
          d="M239.06,480.62A50.13,50.13,0,0,1,222,481.93c-6.1-.49-6.1,9.14,0,9.63A62.22,62.22,0,0,0,241.59,490C247.69,488.42,245.15,479,239.06,480.62Z"/>
    <path class="cls-3"
          d="M840.36,154.33H834c-.48-2.57-1.1-5.12-1.83-7.8-1.82-6-11.09-3.42-9.38,2.55.49,1.83,1,3.54,1.32,5.12h-3.66c-6.34,0-6.34,9.63,0,9.63h5c.12,2.55.12,5.36,0,7.88-.37,6.34,9.38,6.1,9.62,0,.12-2.55.12-5.36,0-7.88h5.12C846.57,164.07,846.57,154.33,840.36,154.33Z"/>
    <path class="cls-3"
          d="M291.45,82h-11L279,71.35c-.86-6.1-10.12-3.53-9.38,2.56.36,2.8.85,5.36,1.09,8h-4.87c-6.34,0-6.34,9.62,0,9.62H272c.37,2.07.61,4.14,1,6.34.85,6.1,10.12,3.53,9.38-2.56-.12-1.31-.36-2.44-.48-3.65h9.62C297.79,91.57,297.79,82,291.45,82Z"/>
    <path class="cls-4" d="M227.61,133.12c-6.34,0-6.34,9.63,0,9.63S233.94,133.12,227.61,133.12Z"/>
    <path class="cls-4" d="M104.18,203.91c-6.33,0-6.33,9.63,0,9.63S110.51,203.91,104.18,203.91Z"/>
    <path class="cls-4" d="M246.13,388.26c-6.34,0-6.34,9.62,0,9.62C252.22,397.88,252.22,388.26,246.13,388.26Z"/>
    <path class="cls-4" d="M156.82,436.39c-6.34,0-6.34,9.63,0,9.63C162.93,446.12,162.93,436.39,156.82,436.39Z"/>
    <path class="cls-4" d="M115.63,381.07c-6.34,0-6.34,9.63,0,9.63S121.85,381.07,115.63,381.07Z"/>
    <path class="cls-4"
          d="M368.09,38.11A5,5,0,0,0,363.22,43v1.46a4.88,4.88,0,0,0,9.75,0V43A4.85,4.85,0,0,0,368.09,38.11Z"/>
    <path class="cls-4"
          d="M648.09,39.3a4.82,4.82,0,0,0-6.82,0h0l-1.45,1.47a4.82,4.82,0,1,0,6.76,6.87l.06,0,1.46-1.46A4.93,4.93,0,0,0,648.09,39.3Z"/>
    <path class="cls-4" d="M755.19,157.13h-1.46a4.88,4.88,0,1,0,0,9.75h1.46a4.88,4.88,0,0,0,0-9.75Z"/>
    <path class="cls-4" d="M912.59,205.38h-1.45a4.87,4.87,0,1,0,0,9.74h1.45a4.87,4.87,0,1,0,0-9.74Z"/>
    <path class="cls-4" d="M833.17,398.25c-6.34,0-6.34,9.63,0,9.63S839.51,398.25,833.17,398.25Z"/>
    <path class="cls-5"
          d="M595,165c-9.85-3.53-21.93-2.92-32-2.8h0c-6-.61-11.94-1-17.55-1.09-38.76-1.1-84.68-5.61-120.5,11.33-14.38,6.82-24.73,21-31.07,35.94-5.11,11.94-1.58,24.74,11,29.85,8.4,3.41,17.91,4.14,26.81,5.37,9.5,1.31,19.25,2.31,28.75,3a410.45,410.45,0,0,0,63.6-.49,394.8,394.8,0,0,0,67.38-11.33c17.3-4.51,25.83-15.84,25.47-33.87C616.28,186.49,609.71,170.17,595,165Z"/>
    <path class="cls-4" d="M741.42,72c-6.33,0-6.33,9.62,0,9.62S747.64,72,741.42,72Z"/>
    <path class="cls-4" d="M691,340h-1.11a4.88,4.88,0,0,0,0,9.75H691a5,5,0,0,0,4.88-4.87A5.06,5.06,0,0,0,691,340Z"/>
    <path class="cls-4"
          d="M644.67,367.31a350,350,0,0,1-24.36-37.53,342.9,342.9,0,0,1-32.41-82.13c-8.28-32.54-11.46-38.87-9.62-72.38,2.06-2,2.06-6.09-1.59-7.06-39-10.12-79.32-2.56-119-5.85A4.26,4.26,0,0,0,451.8,166c-1.83,48-4,69.09-15.36,116-5.36,21.57-12.42,42.89-22.29,62.87-9,18.4-25.1,35.82-26.94,56.78a4.16,4.16,0,0,0,4,4c18.28-.85,30.47-15.59,40.83-29a311.43,311.43,0,0,0,32.45-50.92c9-17.91,15.11-36.44,21.93-55.19,1.46-4.14,3.41-8.54,6.57-11.58,4.87-4.38,12.79-4.6,18.89-5a128.75,128.75,0,0,1,32.77,2.56,3.69,3.69,0,0,0,.37,2.56c13.28,27.29,26.56,54.46,43.73,79.68a272,272,0,0,0,26.57,33.39c6.46,6.82,19.86,21.32,30.83,17.91C658,386.43,648.7,372.53,644.67,367.31Z"/>
    <path class="cls-2"
          d="M535.63,240.34c-15.6-3-35-.48-48.74,8.66a3.7,3.7,0,0,0-4.15,1.82c-.84,1.1-1.45,2.32-2.31,3.54a36.21,36.21,0,0,0-10,18,4.7,4.7,0,0,0,0,1.83c-6,15.47-7.43,32.29,2.56,46.79,12.31,17.91,37,21.56,56.78,16.42,21.93-5.85,39.84-22.29,41.18-45.81C572.06,268,559.87,245,535.63,240.34Z"/>
    <path class="cls-3"
          d="M543.43,163.7c-7.32-4.38-17.31-3.41-25.35-3.16-12.43,0-25,.85-37.41,2.07a4.83,4.83,0,0,0-2.43,1,4.34,4.34,0,0,0-4.39,3.89,134.6,134.6,0,0,0,2,34.24c1.46,7.44,3,12.56,11.45,13,11.46.49,23,0,34.73,0,6.09,0,12.55.36,18.76,0,2.93-.12,5.48-.48,7.56-2.8,2.55-2.8,2.31-6.57,2.43-10.11.12-6.34.37-12.8.37-19C551.1,175.65,550.13,167.85,543.43,163.7Z"/>
    <path class="cls-7"
          d="M564.87,196.72a6.82,6.82,0,0,0-2.32-.85c0-.12-.12-.12-.12-.36a4.29,4.29,0,0,0-5.84,0,7.84,7.84,0,0,0-.5,10.47,6.94,6.94,0,0,0,9.86.37,6,6,0,0,0,.28-8.54A6.21,6.21,0,0,0,564.87,196.72Z"/>
    <path class="cls-7"
          d="M563.29,169.06a6.93,6.93,0,0,0-8,4.39,7.49,7.49,0,0,0-.13,1.83,4.7,4.7,0,0,0,0,1.83c2,6.94,13.41,5.6,13.41-1.59A6.58,6.58,0,0,0,563.29,169.06Z"/>
    <path class="cls-6"
          d="M453.26,334.65c-8-5.12-16.32-10.51-24.37-15.59h-.12c0-4.14-6.82-5.85-8-1.1-5.36,19.86-20.37,34.48-29.49,52.63-3.65,7.56-15.59,36.32.49,37.77,7.07.62,14.14-5.48,19.37-9.5a134.85,134.85,0,0,0,18-16.32,132.77,132.77,0,0,0,26.07-43.26C455.7,337.58,454.48,335.51,453.26,334.65Z"/>
    <path class="cls-6"
          d="M644.67,361.09c-7.91-13.53-15.59-26.94-23.51-40.45-1.83-7.31-4.38-16-11.83-15.47-4.5.36-9.5,3.65-13.39,5.84a136.21,136.21,0,0,0-16.82,10.85,4.14,4.14,0,0,0-1.59,2.43,4.25,4.25,0,0,0-.12,4,82.39,82.39,0,0,0,26.45,31.08.12.12,0,0,1,.12.12h0a90.06,90.06,0,0,0,6.46,7.07C616.41,373,622.5,379,629,385c4.51,4,9.85,9.5,16.42,8.55,5.36-.86,8.65-5.61,8.9-10.61C654.55,375,648.33,367.43,644.67,361.09Z"/>
    <path class="cls-8"
          d="M536.24,270.93c-5.12-13.8-21-24.5-34.82-15.11a3.9,3.9,0,0,0-1.83,3.66c-7.92,9.85-7.8,29-4.63,39,3.65,12.31,19.86,29.49,33.75,20C542.2,309.19,541.38,284.57,536.24,270.93Z"/>
    <path class="cls-5"
          d="M543.67,290.18a10.9,10.9,0,0,0-4.15-4,4.19,4.19,0,0,0-4.38-2c-1.1.12-2.07.36-3.16.48-4.52.13-9.14,1.59-13.05,2.32a6.08,6.08,0,0,0-1.58.61c-.12,0-.12-.12-.36-.12-5.36-2-19.26-8.41-24.37-3.65-5.36,4.59-1.1,16.32,1.31,21.32,3.66,7.79,10.84,14.5,19.25,16.81,7.8,2,13.8-1.46,18.89-6.33a14.24,14.24,0,0,0,21.44-7.56C555.37,301.26,550.13,290.3,543.67,290.18Z"/>
    <path class="cls-7"
          d="M554.39,238.89c-11.45-1.59-23.76-.62-35.33-.86s-23.4-1.1-35-.85c-6.57.12-14.49,2.55-15.83,10.35a8.53,8.53,0,0,0,2.31,7.43,3.49,3.49,0,0,0,3.88,3h0c24.37-1.46,47.89.13,72.13,2.07,6.82.49,14.38-.85,17.09-7.92C566.46,244.85,561.34,239.86,554.39,238.89Z"/>
    <path class="cls-5"
          d="M618.25,316.25c-11,4.63-22,9.14-33,13.9-5.6,2.43-3.17,11.82,2.56,9.38,11-4.6,22.06-9.14,33-13.9C626.4,323.2,624.08,313.82,618.25,316.25Z"/>
    <path class="cls-5"
          d="M448.51,345.38a103,103,0,0,1-27.78-20c-4.38-4.51-11.09,2.46-6.82,6.83a104.93,104.93,0,0,0,29.85,21.56C449.24,356.34,454,347.93,448.51,345.38Z"/>
    <path class="cls-5" d="M497.73,272.27c-6.33,0-6.33,9.62,0,9.62S504.07,272.27,497.73,272.27Z"/>
    <path class="cls-5" d="M519.79,270.69h-.49a4.88,4.88,0,0,0,0,9.75h.49a4.88,4.88,0,0,0,0-9.75Z"/>
    <path class="cls-5"
          d="M515.52,259.35c-4.6-.12-9.38-.12-14,.13-6.09.48-6.33,10.11,0,9.62a105.64,105.64,0,0,1,14-.12C521.74,269.38,521.74,259.72,515.52,259.35Z"/>
    <path class="cls-5"
          d="M525.61,198.42c-2.31-.13-5-1.1-6.82-1.31-2.93-.37-6-.62-8.9-1a170.35,170.35,0,0,0-20.83-.61c-6.34,0-6.34,9.63,0,9.63a195.16,195.16,0,0,1,22.29.84c5.86.5,12.92,3.18,18.52,1.84a5.08,5.08,0,0,0,3.42-3.42l.12-.6C534.41,198.68,528.56,196.11,525.61,198.42Z"/>
    <path class="cls-5"
          d="M529.17,173.58c-5.6-1.47-10.6-.86-16.33,0a103,103,0,0,1-22.05.84c-6.34-.48-6.09,9.14,0,9.63a98.72,98.72,0,0,0,18-.12c6-.61,11.94-2.44,17.91-.85S535.39,175.28,529.17,173.58Z"/>
    <path class="cls-5"
          d="M526.12,426.77c-10.37.36-25.48,3.41-28.88,13.43-4.86,13.89,14.51,16.33,23.4,15.35,9.63-1,26.81-5.48,28.39-17.42C550.86,424.82,535.63,424.82,526.12,426.77Zm9.38,14.13A37.86,37.86,0,0,1,518,446c-3.05.12-5.85.48-8.41-1.83-3.41-1.1-3.53-2.07-.49-3.17l2.44-1.32a35.68,35.68,0,0,1,11.94-3.16,3.7,3.7,0,0,0,2.81,0,1.65,1.65,0,0,0,1-.36h2.44a4.19,4.19,0,0,0,3.53-1.47,6.91,6.91,0,0,1,2.31.13c3.91,1.91,2.68,4.35,0,6.06Z"/>
    <path class="cls-5"
          d="M580.83,475.14c-4.39.36-8.65.85-13,1.09a5,5,0,0,0-4.88,4.88A5.06,5.06,0,0,0,567.8,486c4.38-.36,8.64-.85,13-1.1a5,5,0,0,0,4.88-4.87C585.71,477.57,583.51,474.77,580.83,475.14Z"/>
    <path class="cls-5" d="M465.2,478.06h-14c-6.34,0-6.34,9.63,0,9.63h14C471.29,487.69,471.29,478.06,465.2,478.06Z"/>
</svg>